<?xml version="1.0" encoding="UTF-8" standalone="no"?>
<!-- Created with Inkscape (http://www.inkscape.org/) -->

<svg
   width="352.19806mm"
   height="55.134731mm"
   viewBox="0 0 352.19806 55.134731"
   version="1.1"
   id="svg1"
   inkscape:version="1.4 (86a8ad7, 2024-10-11)"
   sodipodi:docname="foss4g2027_header.svg"
   xmlns:inkscape="http://www.inkscape.org/namespaces/inkscape"
   xmlns:sodipodi="http://sodipodi.sourceforge.net/DTD/sodipodi-0.dtd"
   xmlns="http://www.w3.org/2000/svg"
   xmlns:svg="http://www.w3.org/2000/svg">
  <sodipodi:namedview
     id="namedview1"
     pagecolor="#ffffff"
     bordercolor="#000000"
     borderopacity="0.25"
     inkscape:showpageshadow="2"
     inkscape:pageopacity="0.0"
     inkscape:pagecheckerboard="0"
     inkscape:deskcolor="#d1d1d1"
     inkscape:document-units="mm"
     inkscape:zoom="0.51981271"
     inkscape:cx="976.31318"
     inkscape:cy="-442.46706"
     inkscape:window-width="1718"
     inkscape:window-height="1360"
     inkscape:window-x="1713"
     inkscape:window-y="0"
     inkscape:window-maximized="0"
     inkscape:current-layer="layer1" />
  <defs
     id="defs1" />
  <g
     inkscape:label="Layer 1"
     inkscape:groupmode="layer"
     id="layer1"
     transform="translate(-20.359149,-20.34897)">
    <g
       id="g5"
       transform="matrix(0.87900063,0,0,0.87900063,19.947087,90.308803)">
      <path
         id="path407-5"
         d="m 39.738745,-44.846208 c 0.78916,-1.553282 1.55645,-2.910769 1.79387,-4.575527 l 0.52705,-3.699582 c 0.34925,-2.450393 0.69744,-4.794602 0.4505,-7.29897 l -0.44944,-1.836208 c -0.30057,-1.227315 -0.82162,-1.925815 -2.11772,-2.009775 -1.06857,-0.06915 -2.12761,0.30621 -2.55764,1.460145 -1.71768,4.611158 -2.48497,9.449858 -2.65889,14.402858 -0.10654,3.030009 0.53799,4.370917 2.68781,6.490763 0.80751,-0.15276 1.23614,-0.79093 1.55011,-1.409 z m -13.81196,13.555484 c -0.47872,-0.61948 -1.05198,-1.2954 -1.10702,-2.10926 l -0.39652,-5.84517 -0.0212,-5.752044 0.29175,-4.104569 3.52672,-0.425098 3.21522,-0.686858 0.11994,-5.112454 -0.21695,-6.124223 c -0.0106,-0.297392 -0.82833,-0.354187 -1.13172,-0.26176 l -3.6583,1.111956 0.69427,-3.166181 2.50119,-0.407458 3.57999,-0.508 c 0.26211,-0.209902 0.71719,-0.721077 0.91969,-1.002594 l -0.004,-2.675467 c -0.003,-2.069396 -0.2988,-3.926416 -0.078,-5.979937 2.00307,-1.817511 6.78321,-1.515534 9.41846,-0.657929 1.29187,0.42051 2.10008,1.654175 2.99226,2.570337 1.10949,1.139121 2.1777,3.002492 2.47332,4.536016 0.5006,2.595388 0.46391,5.04543 0.21273,7.625647 l -1.37125,14.072655 c -0.31115,3.195111 -0.56091,6.172551 -1.55187,9.232901 -0.73413,2.26765 -1.53599,4.41219 -2.93264,6.41738 -1.62348,2.33151 -3.51296,4.42136 -5.5693,6.41315 l -1.79882,1.2767 c -0.50059,0.35525 -1.64958,0.34396 -2.26589,0.16757 -0.82479,-0.23601 -1.35572,-0.93804 -1.9057,-1.47602 l -1.29258,-1.26436 -1.59244,-1.97626 -0.75212,-0.91369 -2.29976,-2.97498"
         style="fill:#66caaa;fill-opacity:1;fill-rule:nonzero;stroke:#000000;stroke-width:2;stroke-linecap:round;stroke-linejoin:round;stroke-dasharray:none;stroke-opacity:1;paint-order:markers stroke fill" />
      <path
         id="path408-7"
         d="m 66.464475,-36.517124 c -0.44026,2.68958 -1.30069,5.18125 -2.63489,7.4048 -1.00542,1.6757 -2.81729,2.55976 -4.5212,3.27096 -1.1744,0.45649 -2.31916,0.63394 -3.54683,0.48048 -2.33257,-1.16946 -4.16983,-2.73967 -6.03744,-4.4704 -1.25765,-1.16593 -2.41864,-2.36043 -3.34786,-3.81635 1.0855,-3.09174 1.76883,-6.11117 2.45921,-9.41669 2.00343,1.60513 4.03508,3.56764 5.70407,1.88524 0.35807,-0.36089 0.73272,-1.17299 0.59337,-1.83797 -0.23072,-1.10349 -0.48648,-2.366788 -1.10067,-3.340454 l -2.48249,-3.93559 -1.64218,-2.48426 c -0.3556,-0.537986 0.066,-1.676752 0.11006,-2.3368 l 0.40217,-6.043084 c 0.15981,-2.404885 0.0254,-4.769201 -0.32385,-7.177968 -0.13264,-0.916517 -0.88724,-1.845733 -0.883,-2.759427 0.005,-1.043517 0.92392,-1.802696 1.54587,-2.610204 1.30386,-1.692627 3.83363,-2.504369 5.80355,-1.6002 l 1.65735,0.760589 c 1.08479,0.497769 2.37525,1.449211 3.04764,2.447925 1.22202,1.81469 2.28459,3.493559 3.72392,5.12586 l 1.10173,1.626307 3.09068,4.68489 1.42064,2.315278 -1.7967,1.534232 -2.86596,1.79564 -2.92065,-3.535188 -1.79811,-1.942394 c -0.74189,-0.801865 -1.71662,-1.609725 -2.90124,-1.32715 -0.48049,0.114652 -1.29681,0.688269 -1.48802,1.115132 -0.50906,1.136295 -0.25471,2.29376 -0.01,3.401835 0.4198,1.895827 1.29081,3.478035 2.60103,4.894791 2.15441,2.329392 3.98886,4.832702 5.54496,7.647162 1.35008,2.441578 1.96321,5.378448 1.49436,8.243008"
         style="fill:#66caaa;fill-opacity:1;fill-rule:nonzero;stroke:#000000;stroke-width:2;stroke-linecap:round;stroke-linejoin:round;stroke-dasharray:none;stroke-opacity:1;paint-order:markers stroke fill" />
      <path
         id="path411-6"
         d="m 19.613475,-27.246124 0.19579,5.4797 -6.14786,-2.82964 -2.4772,-1.28305 c -0.28575,-0.14816 -0.60607,-0.66393 -0.61207,-0.9659 l -0.0564,-2.77919 1.48096,-1.71838 c 0.13687,-0.15875 0.34678,-0.53269 0.25999,-0.68791 -0.0868,-0.15523 -0.47978,-0.22966 -0.67345,-0.22508 l -1.1437,0.0272 0.0818,-5.67019 c 0.0349,-2.43029 0.49495,-4.79249 0.72778,-7.204781 l 0.72849,-7.543094 1.02235,-8.120592 0.42897,-4.216048 0.68545,-6.782503 4.23722,-0.821267 3.5126,-0.448029 3.19652,-0.440267 2.52377,-0.411692 5.25216,-0.6858 -0.0381,5.387623 -0.0462,3.504142 -2.51389,0.430035 -3.47733,0.391232 -1.86937,0.491418 -4.99181,1.566333 c -0.29386,1.685573 -0.54715,3.05929 -0.55985,4.760032 l 6.4202,-1.132417 4.44465,-1.292577 0.22578,4.677834 -0.0646,4.204403 -6.229,0.56374 c -2.15194,0.194733 -4.1529,0.576085 -6.23429,1.191329 -0.37924,0.111831 -0.70767,0.381354 -0.62406,0.733073 l 1.61537,0.138994 0.37394,13.883219 0.0924,3.28013 0.25294,4.54801"
         style="fill:#66caaa;fill-opacity:1;fill-rule:nonzero;stroke:#000000;stroke-width:2;stroke-dasharray:none;stroke-opacity:1;paint-order:markers stroke fill" />
      <path
         id="path414-1"
         d="m 113.45942,-45.634315 2.71851,0.159457 c 0.30197,0.01765 0.77293,0.245181 1.02905,0.478718 l -1.55963,5.752396 c -0.51788,1.90994 -1.60338,3.51578 -2.48744,5.27791 -1.27035,2.53118 -2.66241,4.86304 -4.43935,7.08942 -0.60502,0.75812 -1.37442,1.32821 -2.14242,1.92899 -0.5909,0.46214 -1.27141,0.60889 -1.93146,0.091 -1.63019,-1.27917 -3.26566,-2.57987 -4.649265,-4.14584 l -3.80823,-4.31024 c -1.0855,-1.22873 -3.53801,-5.85541 -2.78095,-7.77029 1.11689,0.14323 1.92123,0.19403 2.88149,-0.0564 0.3309,-2.34033 0.3556,-4.41466 0.21343,-6.727822 -0.0162,-0.262114 -0.32985,-0.851254 -0.5073,-0.978254 l -2.38089,-0.313971 0.10971,-2.903714 c 0.0423,-1.125713 0.8883,-2.121604 1.46509,-3.066344 l 1.22625,-2.009068 3.04765,-4.579057 3.294595,-4.461227 2.84903,-3.260725 1.4725,-1.342673 2.64654,2.613025 5.03978,6.602942 1.37089,1.782585 -3.86573,3.081515 -1.89442,-1.811515 -1.80587,-1.574094 c -0.5909,-0.515056 -1.28623,-0.710848 -1.96533,-0.206375 -1.63336,1.213557 -2.74778,2.834217 -3.99979,4.436182 -2.07151,2.65077 -3.718285,5.525555 -4.841525,8.709729 -0.27481,0.779285 -0.29704,1.61431 0.0765,2.346325 l 2.239795,4.386086 c 0.55527,1.08726 1.67992,1.8348 2.49343,2.7305 1.20015,1.3215 3.69217,3.07622 4.34658,2.0634 l 2.97956,-4.61328 2.09691,-0.43251 c 0.15698,-0.0324 0.37465,-0.40287 0.34325,-0.53833 -0.0392,-0.16863 -0.35313,-0.35702 -0.5401,-0.36301 l -3.01308,-0.097 -1.07174,-1.68416 -1.71273,-2.564696 7.45666,0.280458"
         style="fill:#6cad9d;fill-opacity:1;fill-rule:nonzero;stroke:#000000;stroke-width:2;stroke-linecap:round;stroke-linejoin:round;stroke-dasharray:none;stroke-opacity:1;paint-order:markers stroke fill" />
      <path
         id="path415-8"
         d="m 87.642085,-47.731932 c 0.18415,-0.0046 0.51682,-0.440266 0.51364,-0.638174 l -0.10372,-6.091764 0.0557,-3.4163 c 0.003,-0.177449 -0.30127,-0.600782 -0.46813,-0.56374 -0.16722,0.03704 -0.4946,0.255765 -0.58068,0.416631 l -2.47579,4.633383 -0.88018,1.663346 -1.98861,3.666773 c 0.33056,0.213783 0.79622,0.456142 1.05198,0.449792 z m 1.80163,24.719488 -2.14101,-0.4826 -0.025,-7.2711 0.17074,-7.9696 c 0.0152,-0.6985 -0.15204,-1.40018 -0.38417,-2.00872 -2.23309,-0.40181 -4.23969,-0.55245 -6.48653,-0.50129 -0.57996,-1.92511 -1.12007,-3.893613 -2.22743,-5.54179 l -1.08162,-1.610079 2.58762,-4.659135 5.11105,-8.898819 1.79281,-2.984852 2.49555,-4.447116 1.01247,-1.514475 c 0.59902,-0.896057 1.04423,-1.848909 1.78153,-2.593975 l 0.0229,2.421112 0.20462,6.764866 0.19085,6.606823 -0.061,8.991952 c -0.002,0.324557 0.35701,0.718609 0.62759,0.723194 l 2.3368,0.03987 c 0.1143,2.016831 0.0935,3.670651 -0.10478,5.612694 l -2.15794,0.34925 c -0.68439,0.11077 -1.05163,0.64699 -1.06045,1.29787 l -0.024,1.79387 0.20885,6.15774 0.5722,9.88342 c -1.1751,0.31292 -2.1971,0.10337 -3.36162,-0.1591"
         style="fill:#6cad9d;fill-opacity:1;fill-rule:nonzero;stroke:#000000;stroke-width:2;stroke-linecap:round;stroke-linejoin:round;stroke-dasharray:none;stroke-opacity:1;paint-order:markers stroke fill" />
      <path
         id="path416-9"
         d="m 73.620925,-26.479544 c -2.98555,1.66794 -6.36375,-0.0194 -8.59366,-2.46697 l 1.512,-3.36797 0.57891,-1.7459 0.54963,-4.45981 1.37618,0.72178 c 0.90594,0.47519 2.19464,0.56797 2.98309,-0.23001 0.34185,-0.34572 0.74472,-1.25448 0.70133,-1.73814 -0.1009,-1.11654 -0.36583,-2.36961 -0.99801,-3.28471 -1.32327,-1.916291 -3.07517,-3.358799 -4.89373,-4.772733 -1.08691,-0.845608 -1.84997,-1.949801 -2.72486,-3.020483 -1.01212,-1.238247 -1.98049,-2.508602 -2.37208,-4.065055 -0.33479,-1.331032 -0.67275,-2.549525 -0.50906,-3.928182 l 2.76402,2.854677 c 0.6925,0.715081 1.04493,1.640065 1.96638,2.185106 l 3.01237,-1.751893 3.74368,3.723216 c 1.86055,1.850319 3.89431,3.479798 5.1368,5.834944 0.8763,1.660525 1.58644,3.419473 1.97555,5.213353 l 0.0801,1.04775 c 0.0928,1.21567 -0.21943,2.40841 -0.35348,3.59515 -0.17533,1.55117 -0.54928,2.92559 -1.04634,4.36104 -0.41981,1.21179 -1.01036,2.16218 -1.89795,3.11468 -0.38735,0.41557 -0.77293,0.94086 -1.28199,1.22519 l -1.70886,0.95497"
         style="fill:#66caaa;fill-opacity:1;fill-rule:nonzero;stroke:#000000;stroke-width:2;stroke-linecap:round;stroke-linejoin:round;stroke-dasharray:none;stroke-opacity:1;paint-order:markers stroke fill" />
      <path
         id="path417-2"
         d="m 76.021585,-57.328192 -1.71345,-2.862437 c -0.54751,-0.915106 -1.08972,-1.821391 -1.97626,-2.412296 -1.00576,-0.669925 -2.21121,-0.465312 -2.99085,0.377473 l -2.56469,-4.006143 -3.67453,-5.21335 c 0.21131,-0.940507 0.89782,-1.367015 1.69968,-1.757188 2.69663,-1.311275 4.24674,-1.840794 6.93279,-0.3556 1.05833,0.584906 2.06939,1.163463 2.77742,2.155121 l 1.76142,2.468033 1.98649,3.440287 3.27378,6.850592 -4.35751,3.684765 -1.15429,-2.369257"
         style="fill:#66caaa;fill-opacity:1;fill-rule:nonzero;stroke:#000000;stroke-width:2;stroke-linecap:round;stroke-linejoin:round;stroke-dasharray:none;stroke-opacity:1;paint-order:markers stroke fill" />
      <path
         id="path427-7"
         d="m 4.2478853,-29.639724 -0.43885,-0.28187 c -0.0945,-0.0607 0.13617,-0.32702 0.24694,-0.37183 0.88547,-0.35771 1.28447,-1.05692 1.77906,-1.81045 0.3683,-0.56057 0.66393,-1.01071 0.90029,-1.76989 0.64558,1.59279 2.15441,2.51002 4.1169197,2.62714 -1.5299997,1.42487 -2.4870897,2.85468 -2.9421697,4.99039 -0.80786,-1.72226 -1.74837,-2.98908 -3.66219,-3.38349"
         style="fill:#fae339;fill-opacity:1;fill-rule:nonzero;stroke:#000000;stroke-width:2;stroke-linecap:round;stroke-linejoin:round;stroke-dasharray:none;stroke-opacity:1;paint-order:markers stroke fill" />
    </g>
    <g
       id="g4"
       transform="translate(54.462722,-46.827763)">
      <path
         id="path5"
         d="m 84.509563,105.23216 c 0.10195,0.14287 0.17674,0.23847 0.19579,0.18662 l 0.11818,-0.31997 -0.004,-6.288267 -0.01,-6.560257 -1.1871,1.105959 -1.09573,1.103138 c -0.1651,0.166158 -0.51047,0.610658 -0.4639,0.818443 l 1.51236,6.040614 z m 13.42212,-13.043961 -8.41338,-0.333375 -2.94287,-0.10795 2.1851,2.371371 z m -14.40425,-1.561041 c 0.36406,0.01799 0.7814,0.04057 0.85513,-0.142875 l -2.44616,-2.250017 c -0.37042,-0.340783 -0.80046,-0.114652 -1.23296,-0.02257 l -9.90741,2.113489 7.11553,0.0254 z m 4.89549,-3.26249 -0.508,-3.056819 -1.12783,-7.464072 c -0.16192,-1.073855 -0.20426,-2.043641 -0.68298,-2.968978 l -0.10936,4.167011 -0.22436,9.407879 -0.061,2.759072 z m -1.51624,17.168632 -1.09714,5.21653 -0.51858,0.33514 c -0.14217,0.0921 -0.43497,-0.31221 -0.48048,-0.47414 l -1.50389,-4.48168 -2.6476,-9.877076 -7.99606,-2.140304 -5.26309,-1.848909 c -0.24271,-0.06526 -0.51435,-0.390525 -0.51153,-0.642053 0.002,-0.218723 0.35736,-0.412047 0.63994,-0.49883 l 2.94675,-0.905579 6.73594,-1.565627 3.91089,-1.000125 0.83468,-2.790825 1.18674,-4.062237 1.85843,-6.535913 c 0.2092,-0.736247 0.55704,-1.253772 1.08268,-1.955095 0.44097,0.509059 0.70097,0.907345 0.8262,1.4986 l 1.03329,4.879269 1.25236,7.208662 0.22648,2.526948 5.16537,2.06516 7.088007,2.05246 c 0.18557,0.05398 0.4999,0.310092 0.49424,0.473427 -0.005,0.163338 -0.31184,0.345017 -0.51927,0.38735 l -4.552947,0.928865 -2.04047,0.448027 -4.1261,0.930981 -2.07786,0.526698 -0.8643,3.387019 -0.45332,2.582687 -0.62936,3.33057"
         style="fill:#38132e;fill-opacity:1;fill-rule:nonzero;stroke:none;stroke-width:0.0352777" />
      <path
         id="path18"
         d="m 80.657583,98.169193 -2.46063,1.785408 c -0.52599,0.381709 -1.14053,0.849839 -1.74025,0.289979 l 1.91029,-3.867497 c 0.0773,-0.156282 0.3549,-0.40005 0.52141,-0.418397 0.20002,-0.02188 0.51223,0.45579 0.43321,0.650172 l -0.72355,1.777293 1.21955,-0.906992 c 0.15382,-0.1143 0.60749,-0.174273 0.774,-0.08114 0.16651,0.09313 0.22648,0.654756 0.066,0.771173"
         style="fill:#38132e;fill-opacity:1;fill-rule:nonzero;stroke:none;stroke-width:0.0352777" />
      <path
         id="path19"
         d="m 91.145663,86.618543 0.46602,-2.092325 -1.40652,0.600429 c -0.1196,-0.02257 -0.38453,-0.471664 -0.30763,-0.585258 0.0769,-0.113948 0.24271,-0.31115 0.39511,-0.433213 l 2.34492,-1.877835 c 0.14675,-0.117475 0.70485,-0.07514 0.75636,0.09525 0.0515,0.170744 -0.0381,0.47625 -0.11925,0.71261 l -1.0862,3.161948 c -0.12523,0.364419 -0.43991,0.644173 -1.04281,0.418394"
         style="fill:#38132e;fill-opacity:1;fill-rule:nonzero;stroke:none;stroke-width:0.0352777" />
      <path
         id="path20"
         d="m 80.358073,85.252941 -1.19309,-0.667102 0.55633,1.676752 c -0.81915,0.361598 -1.05305,-0.291394 -1.30599,-0.745067 -0.64099,-1.148998 -1.13171,-2.130425 -1.54481,-3.411714 0.78317,0.156281 1.20227,0.387704 1.78611,0.812096 l 2.11737,1.540227 c 0.11642,0.08467 0.22649,0.459316 0.20779,0.589843 -0.0236,0.163338 -0.47202,0.289632 -0.62371,0.204965"
         style="fill:#38132e;fill-opacity:1;fill-rule:nonzero;stroke:none;stroke-width:0.0352777" />
      <path
         id="path21"
         d="m 90.107793,98.810191 -1.19274,-1.108782 c 0.10759,-0.210608 0.46778,-0.556683 0.64205,-0.498123 l 0.89077,0.300215 -0.34114,-1.355725 0.45438,-0.48754 c 0.1023,-0.109712 0.51893,0.231423 0.5715,0.394407 l 0.9846,3.052585 c 0.10936,0.338667 0.0875,1.096792 -0.27587,1.055862 -0.79093,-0.0889 -1.20121,-0.858306 -1.73355,-1.352899"
         style="fill:#38132e;fill-opacity:1;fill-rule:nonzero;stroke:none;stroke-width:0.0352777" />
      <path
         id="path460"
         d="m 88.422923,87.364668 -2.71356,2.844093 0.061,-2.759072 0.22436,-9.407879 0.10936,-4.167011 c 0.47872,0.925337 0.52106,1.895123 0.68298,2.968978 l 1.12783,7.464072 0.508,3.056819"
         style="fill:#fae339;fill-opacity:1;fill-rule:nonzero;stroke:none;stroke-width:0.0352777" />
      <path
         id="path461"
         d="m 84.509563,105.23216 -0.93345,-3.91372 -1.51236,-6.040614 c -0.0466,-0.207785 0.2988,-0.652285 0.4639,-0.818443 l 1.09573,-1.103138 1.1871,-1.105959 0.01,6.560257 0.004,6.288267 -0.11818,0.31997 c -0.019,0.0519 -0.0938,-0.0437 -0.19579,-0.18662"
         style="fill:#fae339;fill-opacity:1;fill-rule:nonzero;stroke:none;stroke-width:0.0352777" />
      <path
         id="path462"
         d="m 83.527433,90.627158 -5.61587,-0.27658 -7.11553,-0.0254 9.90741,-2.113489 c 0.4325,-0.09207 0.86254,-0.318206 1.23296,0.02257 l 2.44616,2.250017 c -0.0737,0.183443 -0.49107,0.160866 -0.85513,0.142875"
         style="fill:#fae339;fill-opacity:1;fill-rule:nonzero;stroke:none;stroke-width:0.0352777" />
      <path
         id="path463"
         d="m 97.931683,92.188199 -9.17115,1.930046 -2.1851,-2.371371 2.94287,0.10795 8.41338,0.333375"
         style="fill:#fae339;fill-opacity:1;fill-rule:nonzero;stroke:none;stroke-width:0.0352777" />
    </g>
    <g
       id="g3"
       transform="matrix(1.2063838,0,0,1.2063838,186.45013,-246.58492)">
      <path
         id="path23"
         d="m 80.297436,260.72719 c -1.453799,-0.55217 -2.907597,-1.30073 -4.015672,-2.28604 l -1.971675,-1.75369 c -0.989541,-0.87986 -1.76036,-2.20775 -2.163233,-3.40925 -0.299154,-0.89256 0.325967,-1.85278 0.77329,-2.48143 0.95109,-1.33767 2.098323,-2.12344 3.5433,-2.79224 l 1.500716,-0.69497 2.672999,-0.98284 c 0.910166,1.17616 2.079625,1.47179 3.262841,1.97908 2.777771,1.19133 5.596112,1.08797 8.43421,0.0381 1.369835,-0.50659 2.72556,-0.92957 3.953227,-1.84855 1.175457,-0.87948 2.11596,-2.03236 3.08116,-3.16019 2.374551,-2.7753 4.239331,-6.1288 5.410911,-9.80792 l 1.4097,3.48297 1.53529,3.70628 2.40559,6.0579 -2.43241,3.37358 c -1.15711,1.60486 -2.54705,2.83958 -4.1155,4.01669 l -2.23873,1.68067 -2.115961,1.25773 -2.223558,1.33021 -3.087862,1.46266 c -1.70533,0.80796 -3.473805,1.15397 -5.287082,1.50357 -1.321858,0.25439 -2.563635,0.32096 -3.922183,0.1567 -1.464027,-0.17723 -2.929115,-0.2668 -4.409368,-0.82902"
         style="fill:#eac60c;fill-opacity:1;fill-rule:nonzero;stroke:#000000;stroke-width:2.4;stroke-linecap:round;stroke-linejoin:round;stroke-dasharray:none;stroke-opacity:1;paint-order:markers stroke fill" />
      <path
         id="path24"
         d="m 60.601852,255.93036 -2.355143,3.3292 -1.82598,-1.45161 -1.671812,-1.71429 c -2.099029,-2.15222 -4.385733,-4.05542 -6.243463,-6.43142 l -1.786818,-2.28459 c -1.367367,-1.74872 -2.048581,-3.8929 -3.140075,-5.84094 -0.251177,-0.44838 -0.717198,-1.31868 -0.459317,-1.75366 l 1.357136,-2.28811 1.302104,-2.04188 2.364669,-3.20993 2.680051,-3.29459 2.726622,-2.38654 c 0.494593,1.69792 1.170516,3.03565 2.169583,4.33635 l 1.48096,1.92722 3.619146,4.16525 1.359254,1.49119 2.145594,2.12019 0.973666,0.88795 3.135842,2.16605 0.463902,2.76578 -2.543527,2.84226 -2.7178,2.8629 -3.034594,3.80322"
         style="fill:#fae339;fill-opacity:1;fill-rule:nonzero;stroke:#000000;stroke-width:2.4;stroke-linecap:round;stroke-linejoin:round;stroke-dasharray:none;stroke-opacity:1;paint-order:markers stroke fill" />
      <path
         id="path27"
         d="m 71.517148,250.10526 -0.644171,0.94615 c -0.942975,-3.86602 -1.490488,-7.80337 -1.450271,-11.86138 l 0.707321,-4.5794 c 0.171096,-1.10737 0.868537,-1.92088 1.715911,-2.54424 l 1.66511,-1.22555 c 2.005189,-1.47531 5.855406,-2.9718 8.493479,-3.00072 l 1.406877,12.30065 0.678392,4.27143 c -4.957234,0.41275 -9.279467,2.01048 -12.572648,5.69306"
         style="fill:#fae339;fill-opacity:1;fill-rule:nonzero;stroke:#000000;stroke-width:2.4;stroke-linecap:round;stroke-linejoin:round;stroke-dasharray:none;stroke-opacity:1;paint-order:markers stroke fill" />
      <path
         id="path38"
         d="m 68.565456,236.30043 c -0.366535,2.02847 -0.227542,3.87738 -0.258585,6.09918 l -2.626077,-2.15265 c -1.479904,-1.21285 -2.766483,-2.48426 -3.995208,-3.95782 l -2.923469,-3.50661 -2.916414,-4.18183 -1.188157,-2.39218 c 0.748242,-0.0561 1.60373,-0.0233 2.29235,0.27517 l 5.914673,2.56116 c 2.512129,1.08797 5.039429,1.96039 7.793212,2.40559 -0.596545,0.62618 -1.471787,1.41429 -1.632654,2.3047 l -0.459671,2.54529"
         style="fill:#c29e1c;fill-opacity:1;fill-rule:nonzero;stroke:#000000;stroke-width:2.4;stroke-linecap:round;stroke-linejoin:round;stroke-dasharray:none;stroke-opacity:1;paint-order:markers stroke fill" />
    </g>
    <g
       id="g6"
       transform="translate(12.215938,95.691517)">
      <path
         id="path409-3"
         d="m 155.26553,-29.594705 c -2.66347,-0.0854 -5.0867,1.37054 -10.67047,0.87665 l -1.68134,0.0141 0.33161,-2.53542 0.83468,-6.2745 1.20508,-6.07307 0.37959,-2.49061 4.00932,-3.45687 1.35114,-1.1878 2.68005,-2.73227 2.56435,-2.84374 1.67428,-1.90323 c 0.40252,-0.457554 0.73801,-1.150762 0.42757,-1.667935 l -0.82586,-1.376185 c -1.00965,0.375708 -2.12901,0.93345 -2.90089,1.807985 l -5.50968,6.245925 c -1.45909,-0.88688 -2.95663,-1.75189 -4.18148,-2.93228 l -1.05586,-1.32186 0.65652,-1.105608 c 1.37195,-2.310694 3.11468,-4.252735 5.07048,-6.101644 l 1.31374,-1.241777 1.39876,-1.459793 3.15454,-2.945696 c 0.83291,-0.777875 1.66617,-1.489779 2.82752,-1.808337 l 2.47755,1.338437 c 1.67146,0.903112 2.94182,2.327981 4.14655,3.768373 l 2.01401,2.40806 1.84715,2.559756 -4.15537,7.320839 -3.21134,4.25873 -2.56469,3.17994 -3.24732,3.86433 -1.01036,1.16558 -1.79211,1.99108 c -0.29104,0.32314 -0.9017,0.762 -1.32644,1.02376 l -2.34209,1.44356 c -0.12101,0.0748 -0.15946,0.54469 -0.0744,0.63888 0.46002,0.51083 1.36349,-1.01811 4.21816,-1.52717 2.38372,-0.4251 4.84258,-0.58808 7.28134,-0.40922 l 5.04578,0.85619 c 0.42262,1.9946 0.31185,3.8167 0.26035,5.76015 -0.0303,1.15323 -0.10689,2.28318 -0.45791,3.43782 -0.54363,0.11889 -1.14758,0.085 -1.69368,0.0265 l -4.23193,-0.45614 -4.23686,-0.13546"
         style="fill:#66caaa;fill-opacity:1;fill-rule:nonzero;stroke:#000000;stroke-width:2;stroke-linecap:round;stroke-linejoin:round;stroke-dasharray:none;stroke-opacity:1;paint-order:stroke markers fill" />
      <path
         id="path410-1"
         d="m 188.86585,-26.501195 -5.55801,-0.34608 0.23918,-4.5533 0.39123,-3.95358 c 0.29175,-2.94993 0.61877,-5.86599 1.49648,-8.64835 l 2.29447,-3.05505 1.68663,-2.19499 3.08292,-4.51732 2.00308,-3.26248 c 0.89006,-1.449919 0.47413,-2.982033 -0.48437,-3.264256 -1.59702,-0.470252 -3.19863,1.982966 -4.41713,3.486146 l -0.97437,1.20227 -3.0032,3.75567 c -0.46531,-0.0575 -1.11019,-0.54293 -1.49824,-1.03717 0.0681,-2.92099 -0.16228,-5.681833 -0.774,-8.597187 l 5.52591,-7.097535 c 0.89041,-1.143354 1.92017,-2.510367 3.19335,-3.174648 1.26188,-0.658283 2.68076,0.439915 3.6389,1.056923 1.53776,0.990246 2.74955,2.034117 3.81071,3.51931 l 3.0995,4.33846 2.07257,4.715937 c 0.23918,1.99354 -0.45861,3.75143 -1.56739,5.31212 l -1.98014,2.788 -5.63175,6.70913 -2.78941,3.49003 -2.44616,3.16759 -0.0497,0.37924 c -0.0155,0.12065 0.5207,0.19508 0.59866,0.10866 l 1.3455,-1.48696 10.1607,0.30621 c 0.10336,2.10114 0.0222,4.11197 -0.37183,6.10023 l -0.93909,4.73957 -8.50759,0.13511 -3.64737,-0.1217"
         style="fill:#66caaa;fill-opacity:1;fill-rule:nonzero;stroke:#000000;stroke-width:2;stroke-linecap:round;stroke-linejoin:round;stroke-dasharray:none;stroke-opacity:1;paint-order:stroke markers fill" />
      <path
         id="path412-2"
         d="m 203.27964,-24.850555 0.55845,-1.68416 1.54058,-3.71122 2.30329,-5.34388 c 0.94685,-2.19745 1.93287,-4.28131 2.49519,-6.68302 -0.1912,-0.53199 -1.07385,-0.77858 -1.58644,-0.71896 l -2.10291,0.24553 0.33056,-2.56258 0.83961,-4.47921 2.6416,-0.91194 c 1.54269,-0.53269 3.09986,-0.71543 4.79919,-0.80962 l 0.54892,-1.6129 1.21567,-3.64207 0.59972,-0.0511 c 0.13723,-0.012 0.17392,-0.42863 0.0938,-0.54046 -0.0801,-0.11183 -0.36971,-0.26705 -0.52246,-0.26599 l -4.39808,0.0307 -3.04059,-0.084 -3.46499,-0.35631 -0.79763,-2.112785 c -0.29351,-0.777169 -0.74154,-1.559984 -0.80997,-2.421112 l -0.44521,-5.59788 3.2071,-0.198966 c 3.67489,-0.227894 7.26793,0.240241 10.95552,0.314679 l 6.62022,0.134408 3.40431,-0.08255 -2.52307,5.984521 -0.72884,1.98261 -2.01365,4.431945 -1.17264,2.6804 c -0.0688,0.15699 0.18874,0.60431 0.34467,0.59055 l 0.66146,-0.0586 4.38467,-0.75706 0.0787,5.34282 c -1.92934,1.15747 -3.92642,1.77024 -6.07272,2.29553 l -1.92616,0.7433 -0.70309,1.62807 -1.39523,3.77543 -2.16253,6.30096 -0.81845,2.22215 -1.89865,5.44618 -4.39808,0.38136 -1.55963,0.11712 -3.08222,0.0381"
         style="fill:#66caaa;fill-opacity:1;fill-rule:nonzero;stroke:#000000;stroke-width:2;stroke-linecap:round;stroke-linejoin:round;stroke-dasharray:none;stroke-opacity:1;paint-order:stroke markers fill" />
      <path
         id="path413-3"
         d="m 175.36893,-40.834915 c 0.45014,-0.88018 0.61277,-1.7152 0.68756,-2.63031 l 0.48965,-5.98346 0.16722,-4.9142 c 0.0543,-1.60337 -0.11077,-3.09879 -0.889,-4.563175 l -1.08973,-0.970491 c -1.28799,7.93e-4 -2.43099,0.80645 -2.68005,2.107496 l -0.70768,3.6957 -0.42791,4.02166 0.16227,5.00345 c 0.0603,1.85914 0.55139,3.83081 2.09374,5.06871 0.6604,0.53023 1.82457,-0.11289 2.19393,-0.83538 z m 0.28821,12.57018 c -2.80987,1.88665 -4.33034,1.44074 -7.07954,0.14146 l -1.75683,-0.82973 c 0.68086,-3.52213 0.75141,-7.0873 0.085,-10.70716 l -3.45581,-0.1972 0.0169,-2.28706 0.21731,-9.04698 1.94204,-2.72063 4.10139,-6.70771 c 0.50836,-0.831143 0.36972,-1.566685 -0.20037,-2.329392 l -1.78153,-2.383366 c 1.61431,-2.9083 4.17265,-3.974394 7.56109,-3.633962 0.75882,0.0762 1.59314,-0.03352 2.3248,0.509762 0.74507,0.553508 1.31551,1.358548 1.90959,2.1082 0.84984,1.072798 1.7593,2.124075 2.10079,3.472391 l 0.72072,2.846917 c 0.37042,2.60421 0.55634,5.15796 0.49742,7.79674 l -0.17392,7.79815 -0.4445,4.60305 c -0.2921,3.02542 -0.54539,5.0366 -2.48779,7.49934 -1.22096,1.54835 -2.45956,2.96792 -4.09681,4.06718"
         style="fill:#66caaa;fill-opacity:1;fill-rule:nonzero;stroke:#000000;stroke-width:2;stroke-linecap:round;stroke-linejoin:round;stroke-dasharray:none;stroke-opacity:1;paint-order:stroke markers fill" />
    </g>
    <g
       id="g2"
       transform="matrix(1.0924596,0,0,1.0924596,111.53221,-53.7524)">
      <path
         id="path418-6"
         d="m 179.59138,83.664403 2.32234,-2.47721 c 0.2487,-0.26529 0.17639,-1.0093 -0.0102,-1.2894 -0.15593,-0.23425 -0.71367,-0.52211 -1.01318,-0.4565 l -1.74907,0.38277 c -0.33267,0.0727 -0.46179,0.9906 -0.4699,1.34972 l -0.0445,2.032 c -0.004,0.1517 0.21237,0.52705 0.35066,0.58526 0.13864,0.0586 0.51012,-0.0159 0.61383,-0.12664 z m 1.79846,-9.76207 c 0.15064,-1.09326 -1.77094,-1.3268 -2.46521,-0.883 -0.14676,0.0938 -0.22049,0.49424 -0.22931,0.71049 l -0.0882,2.2158 c -0.008,0.19579 0.22684,0.61771 0.38488,0.71543 0.57679,0.35666 2.19181,-1.26259 2.39783,-2.75872 z m 4.56001,8.35695 -2.08774,2.43593 -2.55059,2.36538 c -1.74342,1.61643 -3.6583,2.92805 -5.83459,3.91442 -0.48824,-0.70697 -0.83326,-1.52224 -0.83643,-2.38407 l -0.0155,-3.86433 0.34784,-5.41302 0.61347,-7.87188 c 2.89102,-0.63853 5.85259,-0.75001 8.76442,-0.0804 0.5468,0.12558 0.97437,0.41698 1.24177,0.86853 -0.26246,1.12537 -0.81985,1.85032 -1.52788,2.66877 l -2.04717,2.36643 c -0.11077,0.12771 -0.49565,0.3496 -0.58314,0.57079 l 4.44888,0.67064 c 0.3302,0.0497 0.83185,0.44626 0.96026,0.70661 0.23354,0.47449 -0.45825,2.53824 -0.89358,3.04624"
         style="fill:#c8dcd3;fill-opacity:1;fill-rule:nonzero;stroke:#000000;stroke-width:2;stroke-linecap:round;stroke-linejoin:round;stroke-dasharray:none;stroke-opacity:1;paint-order:markers stroke fill" />
      <path
         id="path419-5"
         d="m 193.1571,73.373163 c -0.0889,-0.98248 -1.36631,-1.2326 -2.76014,-0.96696 l -0.0353,3.28753 c 1.34656,-0.29315 2.84445,-1.78011 2.79542,-2.32057 z m 0.52352,10.20445 -2.7626,-2.97074 c -0.13194,-0.14182 -0.48754,-0.29845 -0.64065,-0.25224 -0.1838,0.0554 -0.44626,0.43851 -0.46672,0.62971 l -0.55069,5.18337 -1.30634,1.40793 -2.28776,2.4377 -0.0265,-1.87149 0.048,-2.88325 c 0.0194,-1.14829 0.20003,-1.68734 0.94615,-2.59821 0.51223,-0.62477 0.8068,-1.81116 1.03823,-2.65677 0.17921,-0.65334 -0.0967,-1.32397 -0.57962,-1.65135 -0.62688,-0.42545 -0.49177,-0.85584 -0.41592,-1.47602 l 0.68262,-5.58694 c 1.97132,-0.41734 3.7338,-0.43004 5.70794,-0.16722 1.13913,0.15169 2.51037,0.17392 3.32458,1.13065 0.33937,0.56444 -0.25294,1.63336 -0.74365,2.03235 l -3.5814,2.91148 c 0.0497,0.23777 0.45437,0.37782 0.8188,0.32067 l 1.66228,2.81552 2.48109,3.61597 0.70238,0.99837 1.28552,1.76847 0.72567,0.95673 -2.60174,-0.11253 -3.45969,-3.98216"
         style="fill:#c8dcd3;fill-opacity:1;fill-rule:nonzero;stroke:#000000;stroke-width:2;stroke-linecap:round;stroke-linejoin:round;stroke-dasharray:none;stroke-opacity:1;paint-order:markers stroke fill" />
      <path
         id="path420-0"
         d="m 206.98634,86.896553 c -1.11478,0.13335 -1.96815,-0.61454 -2.66877,-1.24072 l -1.70356,-1.52224 -0.69144,-0.86148 0.39299,-2.55623 c 0.0265,-0.17251 0.3556,-0.52211 0.49953,-0.54857 0.48684,-0.0889 1.03823,1.99355 2.78307,2.34738 0.51682,0.10478 1.11654,-0.40463 1.35113,-0.74612 0.2974,-0.43357 0.52459,-1.17334 0.19227,-1.64218 l -2.75414,-3.88056 c -0.41663,-0.58667 -0.62865,-1.32644 -0.51999,-2.05457 0.21237,-1.42734 3.64843,-3.85834 5.03872,-2.62044 l 2.99227,2.66418 c -0.06,0.64452 -0.42828,1.24213 -0.83468,1.67076 l -1.68098,-0.78141 c -0.61631,-0.28681 -1.54729,-0.63817 -2.16006,-0.0822 -0.61031,0.55421 -0.26564,1.53776 0.20708,2.04611 l 1.96497,2.11138 c 1.10137,1.18392 1.39206,2.96015 0.56021,4.29471 -0.59584,0.95568 -1.26118,1.80058 -2.04858,2.55623 -0.20426,0.19614 -0.60466,0.80821 -0.92004,0.84596"
         style="fill:#c8dcd3;fill-opacity:1;fill-rule:nonzero;stroke:#000000;stroke-width:2;stroke-linecap:round;stroke-linejoin:round;stroke-dasharray:none;stroke-opacity:1;paint-order:markers stroke fill" />
      <path
         id="path421-2"
         d="m 210.83408,98.023513 3.4096,2.735077 3.57787,2.6797 c -1.96885,0.12312 -3.75108,-0.36583 -5.63774,-0.92392 l -3.64102,-3.150307 -0.49177,-0.20108 c -0.13935,-0.0568 -0.42369,0.34431 -0.45826,0.49601 l -0.58632,2.578797 c -0.49741,0.38241 -1.28905,0.48719 -2.01189,0.44662 l 0.44521,-5.773207 0.6537,-6.29461 1.71943,1.70673 0.006,4.38785 c 0.84278,0.35666 0.53587,-1.11513 2.0447,-3.11502 l 1.29998,-1.72297 3.58458,-0.0346 -2.75519,3.22439 -1.56493,2.09867 c -0.0646,0.0864 -0.1464,0.43639 -0.073,0.49319 l 0.47942,0.36865"
         style="fill:#66caaa;fill-opacity:1;fill-rule:nonzero;stroke:#000000;stroke-width:2;stroke-linecap:round;stroke-linejoin:round;stroke-dasharray:none;stroke-opacity:1;paint-order:markers stroke fill" />
      <path
         id="path422-8"
         d="m 224.05655,75.725843 c -0.2152,-0.57009 -1.24884,-0.0628 -1.44322,0.31573 -1.12359,2.18546 -2.03305,5.84976 -0.60007,6.38105 2.03623,0.75459 3.13549,-3.80048 2.04329,-6.69678 z m -2.51037,10.92694 c -1.55716,-0.11254 -2.15653,-1.58115 -2.39007,-2.82328 -0.56973,-3.02895 -0.20814,-6.01628 1.47214,-8.60214 l 1.84221,-0.3563 0.2346,-1.8408 c 0.0589,-0.46319 0.41451,-0.83079 0.94544,-0.7687 0.5655,0.0663 1.47355,0.33091 1.8221,0.82903 0.69109,0.98707 0.68509,2.19075 0.78175,3.33516 0.11818,1.39982 0.0554,2.63913 -0.28187,3.98215 -0.44062,1.75366 -0.94332,3.43641 -2.07962,4.87645 -0.49777,0.63112 -1.46156,1.43228 -2.34668,1.36843"
         style="fill:#c8dcd3;fill-opacity:1;fill-rule:nonzero;stroke:#000000;stroke-width:2;stroke-linecap:round;stroke-linejoin:round;stroke-dasharray:none;stroke-opacity:1;paint-order:markers stroke fill" />
      <path
         id="path423-6"
         d="m 234.20596,83.292573 -1.36419,2.49202 c -0.2039,0.37289 -0.72848,0.68439 -1.1624,0.71226 l -6.81778,0.43815 0.26352,-1.97168 c 1.84044,-2.92205 1.60726,-6.1916 2.8321,-8.99019 l 1.41817,-3.23955 c 0.81245,-0.0981 1.54128,-0.0335 2.46027,0.17004 l -1.0989,4.32787 -1.20862,4.22628 c -0.1397,0.48825 -0.50659,0.82656 -1.01529,1.0668 -0.13018,0.0734 0.24306,0.47343 0.42509,0.4699 1.83692,-0.0342 3.47733,0.0557 5.26803,0.2981"
         style="fill:#c8dcd3;fill-opacity:1;fill-rule:nonzero;stroke:#000000;stroke-width:2;stroke-linecap:round;stroke-linejoin:round;stroke-dasharray:none;stroke-opacity:1;paint-order:markers stroke fill" />
      <path
         id="path424-0"
         d="m 216.227,83.036103 -0.29528,3.28648 c -0.097,1.07703 -1.00118,1.92299 -1.8796,2.56046 l 0.35772,-4.97064 0.72108,-7.89058 c 0.0607,-0.66075 -0.34573,-1.14406 -0.94686,-1.2386 l -1.31586,-0.20638 c -0.19262,-0.7687 -0.61418,-1.24601 -1.21073,-1.79458 -0.12806,-0.30798 0.39864,-1.29223 0.78599,-1.30175 l 3.43641,-0.0857 3.31364,0.091 2.90371,-0.024 -0.26247,2.76437 -1.88736,0.16968 -2.36608,0.31785 -0.40181,1.33421 c -0.69215,2.29623 -0.90206,4.58117 -0.9525,6.98817"
         style="fill:#c8dcd3;fill-opacity:1;fill-rule:nonzero;stroke:#000000;stroke-width:2;stroke-linecap:round;stroke-linejoin:round;stroke-dasharray:none;stroke-opacity:1;paint-order:markers stroke fill" />
      <path
         id="path426-2"
         d="m 198.48792,84.604903 c -0.34219,-0.46637 -0.45508,-0.69427 -0.45155,-1.1945 l 0.0367,-5.02038 c 0.007,-0.99942 -0.013,-2.2158 0.21766,-3.16689 0.2607,-1.07491 1.518,-1.85808 2.0641,-2.76931 0.2914,-0.48577 0.56621,-0.83326 1.10384,-0.91581 l -0.10301,8.27123 c -0.0286,2.29164 -0.24412,4.41537 -1.88595,6.13339 l -0.98178,-1.33773"
         style="fill:#c8dcd3;fill-opacity:1;fill-rule:nonzero;stroke:#000000;stroke-width:2;stroke-linecap:round;stroke-linejoin:round;stroke-dasharray:none;stroke-opacity:1;paint-order:markers stroke fill" />
      <path
         id="path471-4"
         d="m 202.62918,90.824023 -0.63218,8.08672 c -0.078,0.9959 -0.65087,1.964617 -1.10384,2.762607 -0.49918,0.87982 -1.12854,1.11372 -2.11773,1.20791 -1.34761,0.12841 -2.96262,-0.0378 -3.82587,-1.26894 l -0.8449,-1.50989 c -0.53199,-0.951087 -0.63853,-2.232027 -0.5835,-3.342917 l 0.33338,-6.69573 c 1.04422,0.50765 1.86372,0.93451 2.69063,1.73214 0.16299,0.51365 0.0314,1.45098 0.0314,2.07998 0,1.39912 0.27199,2.8381 0.85725,4.08376 0.266,0.56585 1.3014,0.65757 1.7339,0.46707 0.55492,-0.24447 1.15429,-0.7687 1.2192,-1.41922 l 0.26176,-2.62502 c 0.0825,-0.82762 0.10019,-1.79705 0.30586,-2.46168 l 1.67464,-1.09679"
         style="fill:#66caaa;fill-opacity:1;fill-rule:nonzero;stroke:#000000;stroke-width:2;stroke-linecap:round;stroke-linejoin:round;stroke-dasharray:none;stroke-opacity:1;paint-order:markers stroke fill" />
      <path
         id="path476-8"
         d="m 221.31652,113.27621 -1.53282,2.15864 c 0.14499,-3.16794 -0.55033,-4.83093 -2.52165,-7.16244 0.78528,-0.16969 1.80975,-0.20109 2.51213,-0.54222 1.77271,-0.86148 2.86244,-2.50296 3.86291,-4.06083 l -0.0272,1.88701 c -0.0229,1.60796 0.83185,3.19123 2.12196,4.30142 l -0.91934,0.5267 c -1.36137,0.77999 -2.56222,1.57621 -3.49603,2.89172"
         style="fill:#fae339;fill-opacity:1;fill-rule:nonzero;stroke:#000000;stroke-width:2;stroke-linecap:round;stroke-linejoin:round;stroke-dasharray:none;stroke-opacity:1;paint-order:markers stroke fill" />
    </g>
  </g>
</svg>
