<?xml version="1.0" encoding="UTF-8" standalone="no"?>
<svg
   width="551.77216"
   height="134.028"
   viewBox="0 0 551.77216 134.028"
   version="1.1"
   id="svg3486"
   inkscape:version="1.4 (86a8ad7, 2024-10-11)"
   sodipodi:docname="OSGeoUK.svg"
   inkscape:export-filename="/home/jo/git/uk.osgeo.org/images/OSGeo_UK.svg.png"
   inkscape:export-xdpi="90"
   inkscape:export-ydpi="90"
   xmlns:inkscape="http://www.inkscape.org/namespaces/inkscape"
   xmlns:sodipodi="http://sodipodi.sourceforge.net/DTD/sodipodi-0.dtd"
   xmlns="http://www.w3.org/2000/svg"
   xmlns:svg="http://www.w3.org/2000/svg"
   xmlns:rdf="http://www.w3.org/1999/02/22-rdf-syntax-ns#"
   xmlns:cc="http://creativecommons.org/ns#"
   xmlns:dc="http://purl.org/dc/elements/1.1/">
  <metadata
     id="metadata3524">
    <rdf:RDF>
      <cc:Work
         rdf:about="">
        <dc:format>image/svg+xml</dc:format>
        <dc:type
           rdf:resource="http://purl.org/dc/dcmitype/StillImage" />
        <dc:title>OSGeo_community</dc:title>
      </cc:Work>
    </rdf:RDF>
  </metadata>
  <sodipodi:namedview
     pagecolor="#ffffff"
     bordercolor="#666666"
     borderopacity="1"
     objecttolerance="10"
     gridtolerance="10"
     guidetolerance="10"
     inkscape:pageopacity="0"
     inkscape:pageshadow="2"
     inkscape:window-width="1765"
     inkscape:window-height="1211"
     id="namedview3522"
     showgrid="true"
     inkscape:zoom="1.4142136"
     inkscape:cx="259.86174"
     inkscape:cy="123.39013"
     inkscape:window-x="485"
     inkscape:window-y="113"
     inkscape:window-maximized="0"
     inkscape:current-layer="svg3486"
     inkscape:showpageshadow="2"
     inkscape:pagecheckerboard="0"
     inkscape:deskcolor="#d1d1d1"
     showguides="true">
    <inkscape:grid
       type="xygrid"
       id="grid4910"
       originx="-4.54275"
       originy="-46.586"
       spacingy="1"
       spacingx="1"
       units="px" />
    <sodipodi:guide
       position="457.19798,55.382898"
       orientation="1,0"
       id="guide2"
       inkscape:locked="false" />
  </sodipodi:namedview>
  <!-- Generator: Sketch 45.2 (43514) - http://www.bohemiancoding.com/sketch -->
  <title
     id="title3488">OSGeo_community</title>
  <desc
     id="desc3490">Created with Sketch.</desc>
  <defs
     id="defs3492" />
  <g
     id="g2"
     transform="translate(-4.54275,-46.586)">
    <g
       id="g1">
      <path
         style="font-weight:bold;font-size:88px;line-height:1.25;font-family:'Miriam Libre';-inkscape-font-specification:'Miriam Libre Bold';letter-spacing:0px;word-spacing:0px;fill:#4db05b;stroke-width:1px"
         d="m 460.86894,102.85074 q -0.792,0 -1.32,-0.528 -0.528,-0.528 -0.528,-1.32 V 90.178736 q 0,-0.792 0.528,-1.32 0.528,-0.528 1.32,-0.528 h 7.568 q 0.792,0 1.32,0.528 0.528,0.528 0.528,1.32 v 10.824004 q 0,0.792 -0.528,1.32 -0.528,0.528 -1.32,0.528 z m 0,34.144 q -0.792,0 -1.32,-0.528 -0.528,-0.528 -0.528,-1.32 v -10.824 q 0,-0.792 0.528,-1.32 0.528,-0.528 1.32,-0.528 h 7.568 q 0.792,0 1.32,0.528 0.528,0.528 0.528,1.32 v 10.824 q 0,0.792 -0.528,1.32 -0.528,0.528 -1.32,0.528 z m 48.39999,1.144 q -6.688,0 -12.056,-3.256 -5.28,-3.256 -8.36,-8.888 -2.992,-5.632 -2.992,-12.848 V 75.922736 q 0,-0.792 0.528,-1.32 0.528,-0.528 1.32,-0.528 h 7.04 q 0.792,0 1.32,0.528 0.528,0.528 0.528,1.32 v 37.664004 q 0,4.224 1.584,7.392 1.584,3.168 4.4,4.928 2.904,1.76 6.688,1.76 3.784,0 6.6,-1.76 2.816,-1.76 4.4,-4.928 1.584,-3.168 1.584,-7.392 V 75.922736 q 0,-0.792 0.528,-1.32 0.528,-0.528 1.32,-0.528 h 7.04 q 0.792,0 1.32,0.528 0.528,0.528 0.528,1.32 v 37.224004 q 0,7.216 -3.08,12.848 -2.992,5.632 -8.272,8.888 -5.192,3.256 -11.968,3.256 z m 81.92805,-1.056 -8.184,-0.088 q -1.584,0 -2.552,-1.232 l -19.8,-25.08 h -3.344 v 24.464 q 0,0.792 -0.528,1.32 -0.528,0.528 -1.32,0.528 h -7.04 q -0.792,0 -1.32,-0.528 -0.528,-0.528 -0.528,-1.32 V 75.922736 q 0,-0.792 0.528,-1.32 0.528,-0.528 1.32,-0.528 h 7.04 q 0.792,0 1.32,0.528 0.528,0.528 0.528,1.32 v 24.816004 h 2.904 l 20.24,-25.432004 q 0.968,-1.232 2.64,-1.232 h 8.008 q 0.792,0 1.232,0.528 0.528,0.44 0.528,1.056 0,0.528 -0.44,1.144 l -22.88,28.336004 22.968,29.216 q 0.44,0.616 0.44,1.144 0,0.616 -0.528,1.144 -0.44,0.44 -1.232,0.44 z"
         id="text3575"
         transform="scale(0.9382045,1.0658657)"
         aria-label=":UK" />
      <path
         d="m 170.93947,144.54098 c -3.80422,-2.15694 -6.8476,-5.13204 -9.05405,-8.85091 -2.20645,-3.71886 -3.34771,-7.80962 -3.34771,-12.27226 v -19.71 c 0,-4.462641 1.14126,-8.553395 3.34771,-12.272263 2.20645,-3.718868 5.24983,-6.693962 9.05405,-8.850906 3.80423,-2.156943 7.98887,-3.272603 12.47786,-3.272603 4.48898,0 8.67363,1.11566 12.47785,3.272603 3.80422,2.156944 6.8476,5.132038 9.05405,8.850906 2.20645,3.718868 3.34772,7.809622 3.34772,12.272263 v 19.71 c 0,4.46264 -1.14127,8.5534 -3.34772,12.27226 -2.20645,3.71887 -5.24983,6.69397 -9.05405,8.85091 -3.80422,2.15694 -7.98887,3.2726 -12.47785,3.2726 -4.48899,0 -8.67363,-1.11566 -12.47786,-3.2726 m 19.17329,-9.37155 c 2.05428,-1.26441 3.72814,-2.90071 4.94549,-4.98328 1.21735,-2.08257 1.82603,-4.31389 1.82603,-6.76834 v -19.71 c 0,-2.38007 -0.60868,-4.685773 -1.82603,-6.768339 -1.21735,-2.082566 -2.89121,-3.793245 -4.94549,-4.983283 -2.05428,-1.190037 -4.26073,-1.859434 -6.69543,-1.859434 -2.35862,0 -4.64116,0.595019 -6.69544,1.859434 -2.05428,1.264415 -3.72813,2.900717 -4.94549,4.983283 -1.21735,2.082566 -1.82602,4.313889 -1.82602,6.768339 v 19.71 c 0,2.38008 0.60867,4.68577 1.82602,6.76834 1.21736,2.08257 2.89121,3.79325 4.94549,4.98328 2.05428,1.26442 4.26073,1.85944 6.69544,1.85944 2.35862,-0.0744 4.64115,-0.6694 6.69543,-1.85944"
         id="Shape"
         inkscape:connector-curvature="0"
         style="fill:#4db05b;fill-rule:nonzero;stroke:none;stroke-width:0.752261" />
      <path
         d="m 226.55722,146.10291 c -3.27163,-1.04129 -6.31501,-2.60321 -9.13014,-4.46265 -0.30433,-0.14875 -0.53259,-0.52064 -0.68476,-0.9669 -0.15217,-0.44627 -0.0761,-0.89253 0.0761,-1.26442 l 3.27163,-5.80143 c 0.38042,-0.74377 0.9891,-1.11566 1.74994,-1.11566 0.53259,0 0.9891,0.14875 1.44561,0.37189 4.71723,2.90071 9.05405,4.31388 13.16261,4.31388 3.34772,0 5.93459,-0.81815 7.8367,-2.38007 1.90211,-1.56193 2.89121,-3.64449 2.89121,-6.17332 0,-1.63631 -0.45651,-3.04948 -1.44561,-4.23951 -0.91301,-1.11566 -2.20645,-2.08257 -3.72813,-2.90072 -1.59778,-0.81815 -3.88031,-1.78506 -6.84761,-2.97509 l -2.73904,-1.11567 c -4.26073,-1.78505 -7.8367,-4.09075 -10.72791,-6.84271 -2.89121,-2.75196 -4.4129,-6.84272 -4.4129,-12.197889 0,-3.793245 0.83693,-7.065849 2.58688,-9.966566 1.74994,-2.900717 4.10856,-5.132038 7.22802,-6.768339 3.04338,-1.636302 6.61935,-2.380076 10.65183,-2.380076 3.34771,0 6.61934,0.520642 9.89098,1.636302 3.27163,1.11566 6.23892,2.603208 8.90188,4.462642 0.30434,0.148754 0.53259,0.520641 0.68476,0.966905 0.15217,0.446264 0.0761,0.892528 -0.0761,1.264415 l -3.11946,5.801434 c -0.38042,0.743774 -0.9891,1.115661 -1.82603,1.115661 -0.53259,0 -0.98909,-0.148755 -1.4456,-0.371887 -2.4347,-1.561925 -4.79332,-2.677585 -6.99977,-3.346981 -2.20645,-0.669397 -4.18465,-1.041283 -5.93459,-1.041283 -2.81513,0 -5.02157,0.743773 -6.69543,2.23132 -1.59778,1.487548 -2.43471,3.421359 -2.43471,5.801434 0,2.380078 0.91302,4.388268 2.66296,5.950188 1.82603,1.56193 4.64115,3.12385 8.59754,4.76015 0.5326,0.14876 2.73905,1.04128 6.46718,2.52883 3.72814,1.48755 6.69544,3.71887 8.90189,6.61959 2.20645,2.90071 3.27163,6.32207 3.27163,10.26407 0,3.79325 -0.91301,7.21461 -2.73904,10.1897 -1.82603,2.97509 -4.4129,5.28079 -7.76062,6.99147 -3.34771,1.71068 -7.15194,2.52883 -11.48875,2.52883 -3.4238,0.14876 -6.77152,-0.44626 -10.04315,-1.48754"
         id="path3500"
         inkscape:connector-curvature="0"
         style="fill:#4db05b;fill-rule:nonzero;stroke:none;stroke-width:0.752261" />
      <path
         d="m 279.81634,144.54098 c -3.80422,-2.15694 -6.77151,-5.13204 -9.05405,-8.85091 -2.20645,-3.71886 -3.34771,-7.80962 -3.34771,-12.27226 v -19.71 c 0,-4.462641 1.14126,-8.553395 3.34771,-12.272263 2.20645,-3.718868 5.24983,-6.693962 9.05405,-8.850906 3.80423,-2.156943 7.91279,-3.272603 12.47786,-3.272603 3.95639,0 7.60844,0.669396 11.03224,2.082566 3.34772,1.413169 6.23893,3.421358 8.67363,6.024566 0.38043,0.446264 0.53259,0.966905 0.53259,1.561924 0,0.595019 -0.22825,1.264415 -0.76084,1.859434 l -4.10856,4.239509 c -0.53259,0.520642 -0.9891,0.743774 -1.52169,0.743774 -0.60868,0 -1.21735,-0.297509 -1.67386,-0.818151 -3.11946,-3.272604 -7.15194,-4.908906 -12.02134,-4.908906 -2.35862,0 -4.64116,0.595019 -6.69544,1.859434 -2.05428,1.264415 -3.72814,2.900717 -4.94549,4.983283 -1.21735,2.082566 -1.82602,4.313889 -1.82602,6.768339 v 19.71 c 0,2.38008 0.60867,4.68577 1.82602,6.76834 1.21735,2.08257 2.89121,3.79325 4.94549,4.98328 2.05428,1.26442 4.26073,1.85944 6.69544,1.85944 2.35861,0 4.64115,-0.59502 6.69543,-1.78506 2.05428,-1.19004 3.72814,-2.75196 4.8694,-4.83453 1.21736,-2.00819 1.74995,-4.23951 1.74995,-6.61958 v -4.53702 h -12.63002 c -0.5326,0 -1.06519,-0.14876 -1.44561,-0.52064 -0.38042,-0.37189 -0.53259,-0.81815 -0.53259,-1.41317 v -6.61959 c 0,-0.52064 0.15217,-1.04128 0.53259,-1.41317 0.38042,-0.37188 0.83693,-0.52064 1.44561,-0.52064 h 19.85804 c 1.14127,0 2.05428,0.37189 2.89121,1.11566 0.76085,0.74378 1.14127,1.71068 1.14127,2.82634 v 10.71034 c 0,4.46264 -1.14127,8.5534 -3.34772,12.27226 -2.20645,3.71887 -5.24983,6.69397 -9.05405,8.85091 -3.80422,2.15694 -7.91278,3.2726 -12.32568,3.2726 -4.56507,0 -8.67363,-1.11566 -12.47786,-3.2726"
         id="path3502"
         inkscape:connector-curvature="0"
         style="fill:#003a40;fill-rule:nonzero;stroke:none;stroke-width:0.752261" />
      <path
         d="m 337.79271,143.64845 c -3.4238,-1.93381 -6.16284,-4.68577 -8.14104,-8.03275 -1.9782,-3.34698 -3.04338,-7.06585 -3.04338,-11.08223 v -9.96656 c 0,-4.01638 0.9891,-7.73525 3.04338,-11.08223 1.9782,-3.34698 4.71724,-6.098944 8.14104,-8.032756 3.4238,-1.933811 7.15194,-2.975094 11.2605,-2.975094 4.10856,0 7.8367,0.966906 11.2605,2.975094 3.4238,1.933812 6.16284,4.685776 8.14104,8.032756 1.97819,3.42136 3.04337,7.06585 3.04337,11.08223 v 6.17332 c 0,1.11566 -0.38042,2.00818 -1.14126,2.82634 -0.76085,0.74377 -1.74994,1.11566 -2.89121,1.11566 h -29.44469 v 0.44626 c 0,3.04947 1.06518,5.5783 3.27163,7.73525 2.20645,2.15694 4.79332,3.19822 7.8367,3.19822 h 14.91256 c 0.53259,0 1.06518,0.22313 1.4456,0.59502 0.38042,0.37189 0.53259,0.81815 0.53259,1.41317 v 6.69396 c 0,0.52064 -0.15217,1.04129 -0.53259,1.41317 -0.38042,0.37189 -0.83693,0.52064 -1.4456,0.52064 h -14.91256 c -4.18464,-0.0744 -7.98887,-1.11566 -11.33658,-3.04947 z m 22.29274,-28.93279 v -0.81815 c 0,-3.04947 -1.06518,-5.5783 -3.27163,-7.73525 -2.13036,-2.15694 -4.79332,-3.19822 -7.8367,-3.19822 -3.04338,0 -5.70633,1.04128 -7.8367,3.19822 -2.13036,2.15695 -3.27163,4.68578 -3.27163,7.73525 v 0.81815 z"
         id="path3504"
         inkscape:connector-curvature="0"
         style="fill:#003a40;fill-rule:nonzero;stroke:none;stroke-width:0.752261" />
      <path
         d="m 391.05183,144.91287 c -3.4238,-1.93381 -6.16284,-4.53702 -8.14104,-7.884 -1.97819,-3.34698 -2.96729,-6.9171 -2.96729,-10.78472 v -12.19789 c 0,-3.86762 0.9891,-7.51211 2.96729,-10.78471 1.9782,-3.346984 4.71724,-5.950192 8.14104,-7.884003 3.4238,-1.933811 7.15194,-2.900717 11.2605,-2.900717 4.10856,0 7.8367,0.966906 11.2605,2.900717 3.4238,1.933811 6.16285,4.611396 8.14104,7.884003 1.9782,3.34698 3.04338,6.91709 3.04338,10.78471 v 12.12351 c 0,3.86763 -0.9891,7.51212 -3.04338,10.78472 -1.97819,3.34698 -4.71724,5.95019 -8.14104,7.884 -3.4238,1.93381 -7.15194,2.90072 -11.2605,2.90072 -4.10856,0.0744 -7.91278,-0.89253 -11.2605,-2.82634 m 19.02112,-11.00785 c 2.13036,-2.15695 3.27163,-4.68578 3.27163,-7.73525 v -12.12351 c 0,-3.04947 -1.06518,-5.5783 -3.27163,-7.73524 -2.13037,-2.15694 -4.79332,-3.19823 -7.8367,-3.19823 -3.04338,0 -5.70634,1.04129 -7.8367,3.19823 -2.13037,2.15694 -3.27163,4.68577 -3.27163,7.73524 v 12.12351 c 0,3.04947 1.06518,5.5783 3.27163,7.73525 2.13036,2.15694 4.79332,3.19822 7.8367,3.19822 3.11946,0 5.70633,-1.11566 7.8367,-3.19822"
         id="path3506"
         inkscape:connector-curvature="0"
         style="fill:#003a40;fill-rule:nonzero;stroke:none;stroke-width:0.752261" />
    </g>
    <path
       d="M 69.594968,73.510604 V 60.122679 46.586 L 60.997423,61.312717 C 37.563408,66.444755 19.835727,86.154754 18.314038,110.25302 H 32.085326 C 33.759185,90.691773 49.660838,75.146905 69.594968,73.510604"
       id="path3508"
       inkscape:connector-curvature="0"
       style="fill:#4db05b;fill-rule:nonzero;stroke:none;stroke-width:0.752261" />
    <path
       d="M 32.085326,116.94698 H 18.390123 4.54275 l 15.064724,8.40464 c 5.249828,22.90823 25.412211,40.23815 50.063578,41.7257 v -13.4623 C 49.660838,151.97872 33.759185,136.43385 32.085326,116.94698"
       id="path3510"
       inkscape:connector-curvature="0"
       style="fill:#003a40;fill-rule:nonzero;stroke:none;stroke-width:0.752261" />
    <path
       d="m 114.0283,110.17864 h 13.77128 13.84738 L 126.58223,101.774 C 121.3324,78.865773 101.17002,61.535849 76.518654,60.048302 v 13.462302 c 19.93413,1.636301 35.835786,17.181169 37.509646,36.668036"
       id="path3512"
       inkscape:connector-curvature="0"
       style="fill:#003a40;fill-rule:nonzero;stroke:none;stroke-width:0.752261" />
    <path
       d="m 76.442569,153.61502 v 13.4623 13.53668 l 8.597545,-14.72672 c 23.434016,-5.13204 41.161696,-24.84204 42.683386,-48.9403 h -13.77129 c -1.59777,19.48687 -17.499426,35.03174 -37.509641,36.66804"
       id="path3514"
       inkscape:connector-curvature="0"
       style="fill:#4db05b;fill-rule:nonzero;stroke:none;stroke-width:0.752261" />
    <path
       d="M 77.279499,109.43487 51.867287,92.848717 68.834123,117.69075 94.246334,134.27691 Z m -4.260731,6.99147 c -1.673858,0 -2.967294,-1.33879 -2.967294,-2.90072 0,-1.6363 1.369521,-2.90071 2.967294,-2.90071 1.673859,0 2.967295,1.33879 2.967295,2.90071 0,1.56193 -1.293436,2.90072 -2.967295,2.90072 z"
       id="path3516"
       inkscape:connector-curvature="0"
       style="fill:#003a40;fill-rule:nonzero;stroke:none;stroke-width:0.752261" />
    <polygon
       id="polygon3518"
       points="62.2,117.9 84.3,103.1 90,137.3 95.7,103.1 84.5,95.6 77,84.4 42.8,90.1 77,95.7 "
       style="fill:#4db05b;fill-rule:nonzero;stroke:none;stroke-width:1"
       transform="matrix(0.76084465,0,0,0.74377358,4.54275,46.586)" />
    <polygon
       id="polygon3520"
       points="84.4,77 95.6,84.5 103.1,95.7 137.3,90 103.1,84.4 117.9,62.2 95.7,77 90,42.8 "
       style="fill:#4db05b;fill-rule:nonzero;stroke:none;stroke-width:1"
       transform="matrix(0.76084465,0,0,0.74377358,4.54275,46.586)" />
  </g>
  <text
     xml:space="preserve"
     style="font-style:normal;font-weight:normal;line-height:0%;font-family:sans-serif;letter-spacing:0px;word-spacing:0px;fill:#000000;fill-opacity:1;stroke:none;stroke-width:1px;stroke-linecap:butt;stroke-linejoin:miter;stroke-opacity:1"
     x="382.45724"
     y="-85.585999"
     id="text4906"><tspan
       sodipodi:role="line"
       id="tspan4908"
       x="382.45724"
       y="-85.585999"
       style="font-size:40px;line-height:1.25;font-family:sans-serif"> </tspan></text>
</svg>
